<?xml version="1.0" encoding="UTF-8" standalone="no"?>
<!-- Created with Inkscape (http://www.inkscape.org/) -->

<svg
   xmlns:dc="http://purl.org/dc/elements/1.1/"
   xmlns:cc="http://creativecommons.org/ns#"
   xmlns:rdf="http://www.w3.org/1999/02/22-rdf-syntax-ns#"
   xmlns:svg="http://www.w3.org/2000/svg"
   xmlns="http://www.w3.org/2000/svg"
   xmlns:sodipodi="http://sodipodi.sourceforge.net/DTD/sodipodi-0.dtd"
   xmlns:inkscape="http://www.inkscape.org/namespaces/inkscape"
   id="svg4833"
   version="1.1"
   inkscape:version="0.91 r13725"
   width="191.7"
   height="73.800003"
   viewBox="0 0 191.7 73.800003"
   sodipodi:docname="arrow_forward.svg">
  <metadata
     id="metadata4839">
    <rdf:RDF>
      <cc:Work
         rdf:about="">
        <dc:format>image/svg+xml</dc:format>
        <dc:type
           rdf:resource="http://purl.org/dc/dcmitype/StillImage" />
        <dc:title></dc:title>
      </cc:Work>
    </rdf:RDF>
  </metadata>
  <defs
     id="defs4837" />
  <sodipodi:namedview
     pagecolor="#ffffff"
     bordercolor="#666666"
     borderopacity="1"
     objecttolerance="10"
     gridtolerance="10"
     guidetolerance="10"
     inkscape:pageopacity="0"
     inkscape:pageshadow="2"
     inkscape:window-width="1920"
     inkscape:window-height="1027"
     id="namedview4835"
     showgrid="false"
     inkscape:zoom="3.2133542"
     inkscape:cx="31.732679"
     inkscape:cy="0.11565918"
     inkscape:window-x="1272"
     inkscape:window-y="-8"
     inkscape:window-maximized="1"
     inkscape:current-layer="svg4833" />
  <path
     style="fill:#412017;fill-opacity:1"
     d="m 44.251026,68.632785 c 6.45721,-0.83427 11.50178,-3.22 14.9215,-7.056837 4.46296,-5.007337 5.90328,-14.425633 3.06256,-20.026273 -0.57171,-1.12716 -0.74367,-1.725 -0.49617,-1.725 0.86259,0 2.39542,2.564772 2.87193,4.805394 0.85218,4.007067 3.58523,5.779023 6.2353,4.042629 1.08685,-0.712134 1.38857,-1.767009 0.86428,-3.021792 -0.5142,-1.230663 -2.25882,-2.95545 -3.66382,-3.622164 -1.948,-0.924381 -0.6416,-2.451555 1.38061,-1.613928 1.22681,0.508161 1.94076,1.363359 3.1409,3.762288 1.58959,3.177417 3.5572,4.019436 5.30599,2.270649 1.63075,-1.630758 0.85451,-3.227577 -2.52128,-5.186532 -1.93233,-1.121322 -1.84804,-1.614273 0.25363,-1.48344 1.56511,0.09743 1.72405,0.18351 2.88829,1.564236 1.44745,1.716585 2.69805,2.224215 4.9157,1.995333 2.05864,-0.212469 3.28242,-0.874821 4.27877,-2.315814 l 0.81181,-1.174089 8.550004,-0.01238 c 4.7025,-0.0068 15.84,-0.347835 24.75,-0.757842 8.91,-0.410004 18.1575,-0.828408 20.55,-0.929784 l 4.35,-0.184323 -1.54792,0.794115 c -2.0119,1.032156 -4.18264,2.957226 -4.88332,4.330665 -1.13341,2.221674 -1.64077,6.053814 -1.26866,9.58236 l 0.1999,1.895586 1.17255,-1.540617 c 1.49478,-1.96401 5.67458,-5.688525 8.24178,-7.344054 5.93086,-3.824667 12.98313,-6.323007 22.39144,-7.93239 3.55427,-0.607995 4.60988,-1.006092 3.54943,-1.338583 -0.30536,-0.09574 -2.1752,-0.44937 -4.1552,-0.785841 -8.17078,-1.388502 -15.01339,-3.787269 -21.4447,-7.517724 -1.63265,-0.94701 -5.15612,-3.994116 -7.43487,-6.429701 l -2.40625,-2.571854 -0.1992,2.334797 c -0.21667,2.539437 0.14252,5.736767 0.8896,7.918748 0.53624,1.566195 2.68806,3.908277 4.40006,4.789122 0.60756,0.312594 1.16852,0.671532 1.24658,0.79764 0.0781,0.126108 -7.64153,-0.06748 -17.15465,-0.430194 -9.51311,-0.362715 -23.9549,-0.694835 -28.48589,-0.718896 l -11.189314,-0.05942 -0.39283,-0.940167 c -1.51876,-3.6349 -7.07977,-4.704406 -9.12189,-1.754343 -1.60519,2.31888 -2.12713,2.722323 -3.65958,2.828757 -2.57039,0.178521 -2.17647,-0.94845 0.8289,-2.371428 1.83642,-0.869505 2.69647,-2.1479 2.35645,-3.502673 -0.2209,-0.88011 -1.76979,-1.969501 -2.80269,-1.97123 -0.9509,-0.0016 -2.29679,1.351804 -3.44396,3.463181 -1.27044,2.338241 -1.73854,2.962376 -2.54105,3.388088 -0.97469,0.51705 -2.47912,0.437334 -2.70188,-0.143166 -0.28254,-0.736284 0.25526,-1.366416 1.88134,-2.204331 2.7267,-1.405072 3.58403,-3.792841 1.9489,-5.42797 -0.7366,-0.736596 -1.11821,-0.876923 -2.38474,-0.876923 -1.3514,0 -1.58351,0.101136 -2.23766,0.975 -1.06077,1.417076 -1.6016,2.605664 -1.84084,4.045669 -0.11612,0.698867 -0.172,1.306367 -0.1242,1.349999 0.0886,0.0809 -0.45795,0.790839 -1.88585,2.449431 -1.00317,1.165248 -1.4189,0.844335 -0.62094,-0.479319 1.1957,-1.983429 1.64062,-4.042909 1.66331,-7.69931 0.0363,-5.84721 -1.6091,-10.286931 -5.07415,-13.691471 -3.10409,-3.0498873 -6.58429,-4.7963933 -11.73304,-5.8881163 -4.11886,-0.873351 -9.93942,-0.677418 -13.45823,0.453036 -3.83278,1.231318 -7.13892,3.795535 -8.63223,6.6950893 -1.97077,3.826661 -0.73427,9.181023 2.49755,10.814992 3.28169,1.659187 6.99886,-0.0046 7.68598,-3.440191 0.25728,-1.286394 -0.77994,-3.174988 -2.08341,-3.793526 -1.39991,-0.664301 -1.89267,-0.620518 -2.75826,0.24508 -1.07421,1.074203 -1.03096,2.893805 0.0886,3.729111 l 0.825,0.615518 -0.78023,0.0095 c -1.2391,0.01509 -2.59016,-0.574318 -3.09998,-1.352388 -1.0191,-1.555355 -0.17723,-4.607951 1.44045,-5.222991 0.42072,-0.15996 1.18454,-0.159829 1.87486,3.3e-4 1.95773,0.454179 3.05772,0.351958 3.41597,-0.317445 0.26405,-0.493385 0.18722,-0.736971 -0.4258,-1.35 -0.43639,-0.43639 -1.09736,-0.749907 -1.58663,-0.752587 -0.46126,-0.0025 -1.0341,-0.128251 -1.27299,-0.279388 -0.33919,-0.214589 -0.25119,-0.320765 0.40167,-0.484622 1.81899,-0.456539 4.7733,1.294036 5.89525,3.493234 0.78466,1.538077 1.79205,2.187919 2.9854,1.925815 1.37237,-0.301421 1.98895,-1.414526 1.597,-2.882992 -0.24321,-0.911199 -0.23214,-1.105781 0.0496,-0.871932 0.33447,0.277579 0.55633,0.746122 1.893,3.997707 0.75431,1.834924 1.98986,2.206584 3.22604,0.970409 1.54424,-1.544244 0.45225,-5.539428 -1.97357,-7.220521 -1.50798,-1.0450263 -1.51867,-1.2229533 -0.0278,-0.4623683 2.08327,1.0628043 3.64832,3.5140843 3.62705,5.6808893 -0.006,0.5986 -0.1968,1.867159 -0.42426,2.819022 -0.72807,3.046762 0.28045,4.869332 2.69445,4.869332 1.40262,0 2.50633,-0.638236 3.57196,-2.065536 0.93477,-1.252022 0.88717,-5.219019 -0.085,-7.084464 -1.0366,-1.989065 -2.95221,-4.3762033 -4.35949,-5.4325773 -0.96779,-0.726476 -1.07375,-0.883071 -0.48695,-0.719645 1.25127,0.348484 3.8528,2.02205 5.2417,3.3719913 2.22776,2.165279 3.72015,6.144275 3.18724,8.49784 -0.52347,2.311934 -1.51358,3.527308 -3.52649,4.328815 -1.63296,0.650221 -2.16261,1.783941 -1.56589,3.351779 0.61292,1.610395 1.78961,2.361628 3.6113,2.305573 1.79308,-0.05518 2.78512,-0.826719 3.30831,-2.572961 0.45226,-1.509495 1.3188,-1.456689 1.24191,0.07568 -0.0643,1.281991 -1.61316,2.814302 -3.29898,3.263765 -3.00649,0.801576 -6.3991,-1.619665 -6.3991,-4.56692 l 0,-1.207929 -0.78866,0.727294 c -1.08068,0.996582 -1.61134,2.373054 -1.61134,4.17961 0,1.553685 0.73372,3.437235 1.62807,4.179486 0.88264,0.732522 0.47564,0.886959 -1.10307,0.418572 -4.47632,-1.328082 -7.39459,-3.967134 -7.41841,-6.708622 -0.016,-1.843333 2.21007,-2.854584 3.39691,-1.54313 0.62126,0.686484 0.6236,1.078509 0.012,2.011933 -0.46351,0.707411 -0.45637,0.739445 0.1649,0.739445 1.15575,0 2.35367,-0.841206 2.70232,-1.89763 0.47293,-1.432991 -0.13388,-3.053435 -1.57974,-4.218596 -0.99807,-0.804311 -1.42834,-0.938544 -3.31358,-1.033745 -2.37831,-0.120099 -3.65341,0.25807 -5.42418,1.608702 -2.16946,1.654729 -2.91169,5.059341 -1.60847,7.378103 0.77533,1.379517 1.47884,1.88892 3.27037,2.368041 2.43956,0.652434 2.80551,1.495986 0.64788,1.493451 -2.87745,-0.0034 -4.1041,-0.746739 -6.18731,-3.74958 -1.41977,-2.046513 -5.41743,-2.148549 -6.4788,-0.165363 -0.42782,0.799401 -0.3873,2.814894 0.0661,3.287493 0.30717,0.320175 0.13081,0.344595 -0.975,0.135 -2.59034,-0.490968 -3.88432,-0.264153 -6.87823,1.205655 -1.55552,0.763659 -3.24302,1.397959 -3.75,1.409557 -0.50697,0.01161 -1.19177,0.127488 -1.52177,0.257538 -0.51526,0.203055 -0.45169,0.268896 0.45,0.466143 0.5775,0.12633 1.7925,0.599148 2.7,1.050708 4.07246,2.026401 6.33562,2.234412 9.225,0.84789 0.86625,-0.415686 1.575,-0.695541 1.575,-0.621897 0,0.07364 -0.27,0.477144 -0.6,0.89667 -1.73373,2.204082 0.25231,5.365788 3.14516,5.006985 1.63451,-0.202731 2.56441,-0.852936 3.84918,-2.691432 1.48005,-2.11794 3.76754,-3.153303 5.92155,-2.680203 1.33055,0.292239 0.93755,0.809949 -1.08144,1.424619 -3.02317,0.920388 -4.22802,2.68368 -3.96888,5.808462 0.16127,1.94478 1.19642,3.399252 3.39011,4.76343 2.76554,1.719783 7.24637,1.020393 8.64634,-1.349565 0.5664,-0.958833 0.64232,-2.170185 0.18909,-3.017052 -0.36955,-0.690504 -1.81164,-1.483383 -2.69799,-1.483383 l -0.63667,0 0.61517,0.782061 c 1.34939,1.715466 -1.13459,3.104031 -2.6559,1.484673 -0.58343,-0.62103 -0.65899,-0.932475 -0.49369,-2.034771 0.10734,-0.71583 0.44502,-1.712355 0.7504,-2.214504 0.9311,-1.531077 4.34155,-3.45669 7.44035,-4.200984 l 0.83722,-0.20109 -0.66068,0.721401 c -2.17158,2.371161 -2.07965,6.903135 0.17365,8.560914 0.42546,0.313014 0.51334,0.183375 0.69515,-1.025541 0.26549,-1.765317 0.99051,-2.75022 2.64801,-3.597159 2.98729,-1.52643 6.48494,-0.09467 7.08382,2.899752 0.14715,0.735747 0.0833,0.925248 -0.31186,0.925248 -0.27331,0 -0.56879,-0.23625 -0.65663,-0.525 -0.69834,-2.295654 -1.73651,-3.075 -4.09623,-3.075 -0.94381,0 -1.38939,0.204162 -2.18755,1.002318 -2.00721,2.007213 -1.69163,3.708819 0.90046,4.855161 1.84023,0.81384 2.48764,1.617567 3.05035,3.786852 0.95998,3.70083 -1.5255,8.535499 -5.63055,10.952336 -2.7336,1.60941 -2.93112,1.42369 -0.82091,-0.77187 2.66081,-2.768371 3.86301,-5.175496 3.86301,-7.734658 0,-3.365415 -1.69714,-5.486577 -4.39177,-5.48901 -2.41548,-0.0021 -3.39622,1.868145 -2.63955,5.033775 0.5395,2.257092 0.53111,3.445119 -0.0339,4.799739 -0.53469,1.281952 -2.01537,2.923014 -3.1949,3.540964 -1.30613,0.68426 -1.27654,0.49339 0.0854,-0.5506 1.56213,-1.197476 2.443,-2.834607 2.61023,-4.851186 0.14494,-1.747737 -0.41515,-2.681196 -1.7967,-2.994411 -1.05032,-0.238122 -1.84789,0.591042 -2.52265,2.622552 -0.54316,1.635285 -1.60722,3.606964 -1.82764,3.386548 -0.0754,-0.07541 0.009,-0.409801 0.18719,-0.743086 1.06575,-1.991373 -0.90715,-4.00524 -3.09957,-3.163929 -0.26012,0.09982 -0.82594,0.830043 -1.25737,1.622724 -1.0926,2.007471 -3.05929,3.366616 -5.11862,3.537391 -1.98131,0.164307 -2.16728,-0.388428 -0.22851,-0.679164 1.29212,-0.193767 2.52836,-1.003231 2.52836,-1.655524 0,-0.161196 -0.33085,-0.509865 -0.73522,-0.774822 -0.63558,-0.416442 -0.95847,-0.431778 -2.38223,-0.113154 -2.11501,0.473319 -3.36827,0.02784 -3.96945,-1.410984 -1.09843,-2.628924 0.13377,-4.916436 2.63882,-4.898832 1.1226,0.0079 1.21697,0.05512 0.69808,0.349362 -0.85552,0.485136 -1.0402,0.849801 -1.04541,2.064222 -0.009,2.187057 2.19287,3.060639 4.08241,1.619409 2.76465,-2.1087 1.44745,-6.336531 -2.28751,-7.342251 -5.50927,-1.483494 -9.49726,6.164661 -6.17259,11.837782 1.67231,2.853583 5.90357,5.691313 9.85011,6.606043 2.41663,0.56014 7.0378,0.7855 9.52299,0.46442 z m 17.82605,-31.106743 c -0.34317,-0.22191 -0.71375,-0.313668 -0.82351,-0.20391 -0.2407,0.240705 -2.60254,-0.499941 -2.60254,-0.816127 0,-0.35019 1.64207,-0.83367 3.57366,-1.052205 1.52611,-0.172659 2.00206,-0.09266 3.48324,0.585444 0.94358,0.431988 1.92429,0.785431 2.17935,0.785431 0.72602,0 0.28484,0.266853 -1.45294,0.878835 -1.70355,0.599925 -3.25263,0.536832 -4.35726,-0.177468 z m -30.67143,-0.360687 -1.29538,-0.525798 0.84538,-0.386095 c 1.46798,-0.670443 3.77059,-0.751671 5.45436,-0.192414 0.84756,0.281514 1.54102,0.624748 1.54102,0.762736 0,0.914916 -4.54813,1.152258 -6.54538,0.341571 z"
     id="path5383"
     inkscape:connector-curvature="0"
     sodipodi:nodetypes="sssssssssssssssscssscssscssssssscsssssscsssscssssssssccsssssssssssccssscsscssssscsssscsssssssssssscsscsssssssssssssssssssscssssssssssssssscssssscsssssssssssssscssscsssccssssscsssscsssssscssssssscssss" />
</svg>
