<svg xmlns="http://www.w3.org/2000/svg" viewBox="0 0 512 512" style="height: 512px; width: 512px;"><defs><clipPath id="icon-bg"><rect fill="#412017" fill-opacity="0.69" stroke="#ffffff" stroke-opacity="1" stroke-width="2" transform="translate(-25.6, -25.6) scale(1.1, 1.1) rotate(0, 256, 256) skewX(0) skewY(0)" height="508" width="508" rx="32" ry="32"></rect></clipPath></defs><rect fill="#412017" fill-opacity="0.69" stroke="#ffffff" stroke-opacity="1" stroke-width="2" height="508" width="508" rx="32" ry="32"></rect><g class="" transform="translate(0,0)" style=""><path d="M468.166 24.156c-13.8-.31-30.977 9.192-42.46 16.883-22.597 15.13-45.255 67.882-45.255 67.882s-17.292-5.333-22.626 0c-5.333 5.333 0 22.627 0 22.627l-4.95 4.948 22.628 22.63 4.95-4.952s17.293 5.333 22.626 0c5.333-5.334 0-22.627 0-22.627s52.75-22.66 67.883-45.255c10.7-15.978 24.91-42.97 11.313-56.568-3.824-3.825-8.707-5.45-14.107-5.57zM312.568 121.65L121.65 312.568l77.782 77.782L390.35 199.432l-77.782-77.782zm-176.07 231.223l-4.95 4.95s-17.293-5.332-22.626 0c-5.333 5.335 0 22.628 0 22.628s-52.75 22.66-67.883 45.255c-10.7 15.978-24.91 42.97-11.313 56.568 13.597 13.598 40.59-.612 56.568-11.312 22.596-15.13 45.254-67.882 45.254-67.882s17.292 5.333 22.626 0c5.333-5.333 0-22.627 0-22.627l4.95-4.948-22.628-22.63z" fill="#ffffff" fill-opacity="1" stroke="#412017" stroke-opacity="1" stroke-width="3" clip-path="url(#icon-bg)" transform="translate(25.6, 25.6) scale(0.9, 0.9) rotate(0, 256, 256) skewX(0) skewY(0)"></path></g></svg>