<?xml version="1.0" encoding="UTF-8" standalone="no"?>
<svg
   xmlns:dc="http://purl.org/dc/elements/1.1/"
   xmlns:cc="http://creativecommons.org/ns#"
   xmlns:rdf="http://www.w3.org/1999/02/22-rdf-syntax-ns#"
   xmlns:svg="http://www.w3.org/2000/svg"
   xmlns="http://www.w3.org/2000/svg"
   version="1.1"
   id="svg4820"
   style="height: 512px; width: 512px;"
   viewBox="0 0 512 512">
  <metadata
     id="metadata4835">
    <rdf:RDF>
      <cc:Work
         rdf:about="">
        <dc:format>image/svg+xml</dc:format>
        <dc:type
           rdf:resource="http://purl.org/dc/dcmitype/StillImage" />
        <dc:title></dc:title>
      </cc:Work>
    </rdf:RDF>
  </metadata>
  <defs
     id="defs4822">
    <clipPath
       id="icon-bg">
      <rect
         id="rect4825"
         ry="32"
         rx="32"
         width="508"
         height="508"
         transform="translate(-25.6, -25.6) scale(1.1, 1.1) rotate(0, 256, 256) skewX(0) skewY(0)"
         stroke-width="2"
         stroke-opacity="1"
         stroke="#ffffff"
         fill-opacity="0.69"
         fill="#412017" />
    </clipPath>
  </defs>
  <rect
     id="rect4827"
     ry="32"
     rx="32"
     width="508"
     height="508"
     stroke-width="2"
     stroke-opacity="1"
     stroke="#ffffff"
     fill-opacity="0.69"
     fill="#412017" />
  <g
     transform="matrix(1.1329867,0.55749608,-0.53602183,1.1783768,-159.24943,-502.0185)"
     style="fill:#ffffff;fill-opacity:1;stroke:#412017;stroke-width:2.35518837;stroke-linejoin:round;stroke-miterlimit:4;stroke-dasharray:none;stroke-opacity:1"
     id="g4258">
    <path
       style="fill:#ffffff;fill-opacity:1;stroke:#412017;stroke-width:2.35518837;stroke-linejoin:round;stroke-miterlimit:4;stroke-dasharray:none;stroke-opacity:1"
       d="m 487.12501,586.21547 c -26.16826,-3.99804 -44.16197,-11.90604 -48.67549,-21.39223 -1.50008,-3.15276 -1.55277,-4.17298 -0.72628,-14.06294 0.49012,-5.86496 1.28631,-16.11296 1.76931,-22.77332 0.48299,-6.66036 1.0857,-13.72344 1.33934,-15.69573 l 0.46117,-3.58597 6.30678,1.17071 6.30677,1.1707 -0.52294,3.0508 c -1.57548,9.19127 -1.48914,11.85722 0.49993,15.43642 4.31302,7.76103 15.98956,13.57641 32.93195,16.4014 20.40513,3.40238 33.06615,1.51328 39.62763,-5.91268 2.05543,-2.32622 2.70579,-4.06389 3.51744,-9.39797 0.54767,-3.59922 1.05105,-6.54364 1.11863,-6.54313 1.0689,0.008 12.4787,2.28057 12.75796,2.54108 0.32799,0.30599 -6.83098,24.58915 -13.30069,45.11573 -2.31682,7.35065 -6.30345,11.45705 -13.15286,13.54798 -6.23817,1.90434 -20.9241,2.35529 -30.25865,0.92915 z m 10.99656,-40.00977 c -8.11885,-0.89053 -21.77655,-3.69674 -26.30493,-5.40479 -9.78637,-3.6913 -17.79903,-11.27412 -17.0938,-16.17678 l 0.26839,-1.86579 33.08055,5.69996 c 18.1943,3.13498 34.26748,5.9028 35.71817,6.15072 3.26327,0.55768 3.01343,2.3961 -0.79807,5.87245 -4.52283,4.12511 -15.79536,6.71964 -24.87031,5.72423 z m 25.96195,-14.89655 c -4.53617,-0.59297 -4.70895,1.23071 2.05431,-21.68212 1.41945,-4.80886 8.7225,-29.77052 13.02895,-44.53263 1.75495,-6.01581 5.45255,-18.67246 8.21689,-28.12588 10.45612,-35.75757 13.83514,-47.3176 18.15522,-62.11131 2.4469,-8.37916 6.40636,-21.91474 8.79879,-30.07906 2.39243,-8.16432 5.78575,-19.76624 7.5407,-25.78205 1.75495,-6.01581 5.45255,-18.67246 8.21689,-28.12588 2.76434,-9.45342 6.9275,-23.69214 9.25146,-31.64161 2.32395,-7.94946 5.53802,-18.84824 7.14235,-24.2195 2.80688,-9.39732 2.8603,-9.81976 1.41524,-11.19212 -2.10635,-2.0004 -7.76951,-2.62099 -9.20395,-1.00861 -1.9476,2.18923 -0.38884,3.87223 5.02545,5.42603 1.15947,0.33275 0.79208,2.24085 -2.75759,14.32182 -6.66143,22.67157 -12.35413,42.11543 -15.74636,53.78291 -1.74905,6.01581 -5.70712,19.55139 -8.79571,30.07906 -3.08858,10.52768 -7.04666,24.06325 -8.79571,30.07907 -1.74905,6.01581 -5.07119,17.44194 -7.38253,25.39141 -2.31134,7.94947 -6.32792,21.66083 -8.92574,30.4697 -5.22717,17.72464 -12.81285,43.62597 -13.84304,47.2671 -0.7492,2.64802 -6.09334,20.9092 -12.57518,42.97009 -2.39881,8.16431 -5.13014,17.61096 -6.06964,20.99253 l -1.70815,6.14833 -4.67551,-0.51263 c -2.57152,-0.28195 -4.91571,-0.76347 -5.20931,-1.07005 -0.29359,-0.30657 0.68808,-5.30365 2.1815,-11.10461 1.49341,-5.80096 4.42518,-17.40289 6.51505,-25.78205 2.08987,-8.37917 5.21798,-20.91003 6.95136,-27.84635 l 3.1516,-12.61151 3.26081,-0.91139 c 4.5057,-1.25935 9.67973,-5.78674 10.33456,-9.04298 0.71547,-3.55788 -0.9335,-7.78438 -4.45632,-11.42202 -2.86321,-2.95653 -2.91654,-3.12942 -2.07713,-6.73403 1.37174,-5.89045 6.5013,-26.72444 10.24028,-41.5914 1.89119,-7.51977 4.53041,-18.06697 5.86493,-23.43823 1.33452,-5.37126 3.97594,-15.91847 5.86983,-23.43823 1.89389,-7.51977 4.73975,-18.85801 6.32414,-25.1961 3.6644,-14.65882 7.92549,-31.69499 11.72475,-46.87646 5.44933,-21.77499 5.21634,-20.07312 2.97938,-21.76293 -3.18741,-2.40778 -9.31097,-1.81382 -9.31097,0.90312 0,1.63977 3.00151,3.86709 5.21124,3.86709 0.81874,0 1.48821,0.43947 1.48771,0.9766 -8.4e-4,0.93005 -2.89854,12.9697 -9.54284,39.64967 -6.99951,28.1063 -15.87343,63.68903 -18.55859,74.41638 -7.04765,28.15578 -8.92151,35.66859 -11.62721,46.61674 -1.58417,6.41009 -3.28913,13.07106 -3.78881,14.80215 l -0.90849,3.14744 -5.21412,-2.30115 c -2.86777,-1.26563 -5.88547,-2.30142 -6.706,-2.30176 -2.44228,-7.8e-4 -2.55612,-1.90907 -0.66478,-11.14265 0.98919,-4.82925 5.01444,-24.77705 8.94501,-44.32844 3.93057,-19.55139 10.35156,-51.36206 14.26888,-70.69038 l 7.12238,-35.14239 -1.82972,-1.38218 c -2.31797,-1.751 -7.74782,-1.82182 -9.26112,-0.12079 -0.96656,1.08647 -0.80008,1.51985 1.20038,3.1251 1.27741,1.02503 3.05528,1.8637 3.95082,1.8637 0.89555,0 1.62827,0.36747 1.62827,0.81661 0,0.44913 -3.01966,15.83047 -6.71035,34.18075 -3.6907,18.35028 -9.3621,46.54815 -12.60312,62.66193 -3.24101,16.11378 -7.23638,35.88979 -8.87859,43.94668 l -2.98584,14.64889 -8.27929,0 c -4.55362,0 -8.27726,-0.26368 -8.27477,-0.58595 0.003,-0.32228 0.75034,-5.50799 1.66188,-11.5238 1.55001,-10.22954 2.5057,-16.69492 5.48557,-37.11053 0.65855,-4.51186 1.93905,-13.12541 2.84556,-19.14122 0.90651,-6.01581 2.24732,-15.15672 2.97957,-20.31313 0.73225,-5.15641 1.86162,-12.89103 2.50971,-17.18804 0.64809,-4.29701 1.78325,-12.03162 2.5226,-17.18803 0.73933,-5.15641 1.71401,-11.58583 2.16594,-14.2876 0.45192,-2.70176 0.57374,-5.28654 0.2707,-5.74395 -1.76019,-2.65692 -9.98853,-3.35381 -10.98539,-0.93041 -0.63102,1.53406 1.9705,3.98026 4.86336,4.57299 2.93362,0.60109 2.91422,0.19941 0.72575,15.0278 -0.93492,6.33475 -2.83021,19.25235 -4.21176,28.70577 -1.38154,9.45342 -3.03885,20.70377 -3.68292,25.00078 -0.64406,4.29701 -1.78271,12.03162 -2.53033,17.18803 -0.74763,5.15641 -1.89224,12.89103 -2.54358,17.18804 -0.65134,4.29701 -1.96044,13.26213 -2.9091,19.92249 -2.67889,18.80789 -2.42391,17.77695 -4.51802,18.26726 -1.03085,0.24137 -3.43469,1.49334 -5.34185,2.78215 -6.57959,4.44635 -6.62415,11.02687 -0.11786,17.40735 3.77799,3.70496 3.88064,4.50556 2.05225,16.00584 -0.66882,4.20679 -1.80594,11.69181 -2.52692,16.63337 -0.72099,4.94156 -2.43147,16.54348 -3.80106,25.78205 -1.3696,9.23857 -2.70522,18.29159 -2.96803,20.11781 -0.51552,3.58223 -0.53628,3.59119 -6.53944,2.82359 l -3.88556,-0.49683 0,-3.63509 c 0,-1.99931 0.53622,-9.77403 1.1916,-17.27717 0.65538,-7.50314 1.42553,-16.80622 1.71144,-20.67353 0.28592,-3.86731 1.06088,-13.53558 1.72215,-21.48504 0.66127,-7.94947 1.39443,-16.91459 1.62925,-19.9225 0.64545,-8.26781 3.62735,-45.13937 5.4654,-67.58023 0.89748,-10.95737 2.40776,-29.76655 3.35619,-41.79818 0.94842,-12.03162 2.01714,-25.01977 2.37493,-28.86255 0.71768,-7.70816 0.0585,-9.21069 -4.51044,-10.28045 -2.55288,-0.59773 -6.24066,0.75271 -6.24066,2.28527 0,1.57544 2.7915,3.65357 4.90775,3.65357 1.01457,0 2.07306,0.55522 2.35219,1.23381 0.27913,0.67859 -0.31701,11.31369 -1.32475,23.63355 -4.23733,51.80194 -5.10796,62.4914 -6.72412,82.55787 -0.93442,11.60192 -2.45251,30.4111 -3.37353,41.79817 -0.92102,11.38708 -2.43264,30.19625 -3.35916,41.79818 -0.92652,11.60192 -1.91361,23.8191 -2.19354,27.14928 l -0.50896,6.05488 -2.63465,-0.012 c -4.38449,-0.0199 -4.95536,-0.77486 -4.06019,-5.36944 0.95055,-4.87884 0.84039,-4.96275 -8.41488,-6.40927 -7.51316,-1.17424 -6.89937,0.35267 -5.68564,-14.14414 0.75497,-9.01735 2.3474,-29.75441 4.21792,-54.92708 0.44702,-6.01581 1.39015,-18.49667 2.09583,-27.73524 0.70568,-9.23857 1.6602,-21.89521 2.12116,-28.12587 0.46096,-6.23067 1.00814,-13.43792 1.21597,-16.01613 0.20782,-2.5782 0.7781,-10.13703 1.26728,-16.79739 0.48919,-6.66037 1.25887,-16.856 1.7104,-22.65696 0.45154,-5.80096 1.19137,-15.52205 1.64409,-21.60242 0.45271,-6.08036 1.0546,-11.61799 1.33754,-12.30582 0.47788,-1.16176 5.31945,-3.96651 30.48397,-17.65955 5.29707,-2.88235 13.96502,-7.60022 19.26209,-10.48413 5.29708,-2.88393 31.10826,-16.92243 57.35819,-31.19667 50.63743,-27.53573 48.24227,-27.12111 48.65567,-32.15521 0.44293,-5.39378 -6.02756,-11.51697 -15.66617,-11.63365 -6.49796,-0.0362 -8.91046,6.47974 -8.91046,6.47974 0,0 -2.92963,-8.42485 1.26307,-12.87958 3.90099,-4.14478 6.45046,-6.02338 16.12261,-6.08853 9.35134,-0.063 14.97887,1.07017 23.10064,4.65154 6.87848,3.03313 12.29889,8.01691 13.79884,12.6873 0.9456,2.94429 0.56268,4.57256 -6.58623,28.00683 -4.17462,13.68444 -12.30048,40.35003 -18.0575,59.25687 -5.75701,18.90684 -15.93038,52.30631 -22.60748,74.22106 -20.70514,67.95574 -33.02511,108.44323 -40.41487,132.81664 -10.18626,33.59703 -10.56038,34.76672 -11.11971,34.76657 -0.27837,-8e-5 -3.45999,-0.52744 -7.07028,-1.17191 -9.14696,-1.63284 -8.72825,-1.77272 -9.38562,3.13556 -0.63731,4.7585 -0.73462,4.87545 -3.73105,4.48375 z m -25.95365,-4.44503 c -2.87891,-0.53912 -4.67707,-1.29342 -4.80975,-2.01759 -0.11654,-0.6361 3.09341,-17.32894 7.13322,-37.09518 l 7.34512,-35.93862 7.30504,-0.0142 c 4.01778,-0.008 7.30505,0.13649 7.30505,0.32071 0,0.18422 -1.2972,5.46424 -2.88266,11.73337 -1.58546,6.26912 -4.41816,17.55094 -6.29487,25.07071 -1.87671,7.51976 -4.77304,19.12168 -6.43628,25.78205 -1.66324,6.66036 -3.25873,12.31451 -3.54555,12.56479 -0.28681,0.25026 -2.59051,0.0676 -5.11932,-0.40599 z m -15.81241,-2.57446 -2.82314,-0.32215 0.56647,-4.82641 c 0.54051,-4.60525 2.20698,-16.04919 8.04066,-55.21654 1.43984,-9.66712 2.73941,-17.68995 2.88792,-17.82849 0.14851,-0.13854 1.72192,0.43909 3.49645,1.28363 1.77453,0.84454 4.8293,1.93817 6.78837,2.43028 3.05574,0.76761 3.50254,1.14005 3.14394,2.62067 -0.22991,0.94925 -3.25542,15.78884 -6.72337,32.97688 -3.46794,17.18804 -6.70167,33.09673 -7.18606,35.35266 -0.96117,4.4764 -0.73752,4.38004 -8.19124,3.52947 z M 585.40885,217.81815 c -1.59876,-1.43414 -1.51335,-0.51312 -4.64635,-0.84534 -6.31492,-0.66965 -11.0359,-7.45068 -3.7248,-13.01231 6.2026,-4.71837 12.10514,2.05042 11.3483,6.86102 -0.26791,1.70281 -0.5849,2.36602 0.94506,3.84833 2.93308,2.84172 3.17015,2.26947 0.7814,3.89843 -2.47303,1.68643 -1.77276,1.87894 -4.70361,-0.75013 z"
       id="path4147" />
    <path
       id="path4223"
       d="m 465.12567,285.07831 c -1.59876,-1.43414 -1.51335,-0.51312 -4.64635,-0.84534 -6.31492,-0.66965 -11.0359,-7.45068 -3.7248,-13.01231 6.2026,-4.71837 12.10514,2.05042 11.3483,6.86102 -0.26791,1.70281 -0.5849,2.36602 0.94506,3.84833 2.93308,2.84172 3.17015,2.26947 0.7814,3.89843 -2.47303,1.68643 -1.77276,1.87894 -4.70361,-0.75013 z"
       style="fill:#ffffff;fill-opacity:1;stroke:#412017;stroke-width:2.35518837;stroke-linejoin:round;stroke-miterlimit:4;stroke-dasharray:none;stroke-opacity:1" />
    <path
       id="path4223-8"
       d="m 496.20785,267.38296 c -1.59876,-1.43414 -1.51335,-0.51312 -4.64635,-0.84534 -6.31492,-0.66965 -11.0359,-7.45068 -3.7248,-13.01231 6.2026,-4.71837 12.10514,2.05042 11.3483,6.86102 -0.26791,1.70281 -0.5849,2.36602 0.94506,3.84833 2.93308,2.84172 3.17015,2.26947 0.7814,3.89843 -2.47303,1.68643 -1.77276,1.87894 -4.70361,-0.75013 z"
       style="fill:#ffffff;fill-opacity:1;stroke:#412017;stroke-width:2.35518837;stroke-linejoin:round;stroke-miterlimit:4;stroke-dasharray:none;stroke-opacity:1" />
    <path
       id="path4223-0"
       d="m 526.25989,251.59933 c -1.59876,-1.43414 -1.51335,-0.51312 -4.64635,-0.84534 -6.31492,-0.66965 -11.0359,-7.45068 -3.7248,-13.01231 6.2026,-4.71837 12.10514,2.05042 11.3483,6.86102 -0.26791,1.70281 -0.5849,2.36602 0.94506,3.84833 2.93308,2.84172 3.17015,2.26947 0.7814,3.89843 -2.47303,1.68643 -1.77276,1.87894 -4.70361,-0.75013 z"
       style="fill:#ffffff;fill-opacity:1;stroke:#412017;stroke-width:2.35518837;stroke-linejoin:round;stroke-miterlimit:4;stroke-dasharray:none;stroke-opacity:1" />
    <path
       id="path4223-6"
       d="m 556.66906,235.05436 c -1.59876,-1.43414 -1.51335,-0.51312 -4.64635,-0.84534 -6.31492,-0.66965 -11.0359,-7.45068 -3.7248,-13.01231 6.2026,-4.71837 12.10514,2.05042 11.3483,6.86102 -0.26791,1.70281 -0.5849,2.36602 0.94506,3.84833 2.93308,2.84172 3.17015,2.26947 0.7814,3.89843 -2.47303,1.68643 -1.77276,1.87894 -4.70361,-0.75013 z"
       style="fill:#ffffff;fill-opacity:1;stroke:#412017;stroke-width:2.35518837;stroke-linejoin:round;stroke-miterlimit:4;stroke-dasharray:none;stroke-opacity:1" />
  </g>
</svg>
