<?xml version="1.0" encoding="UTF-8" standalone="no"?>
<svg
   xmlns:dc="http://purl.org/dc/elements/1.1/"
   xmlns:cc="http://creativecommons.org/ns#"
   xmlns:rdf="http://www.w3.org/1999/02/22-rdf-syntax-ns#"
   xmlns:svg="http://www.w3.org/2000/svg"
   xmlns="http://www.w3.org/2000/svg"
   xmlns:sodipodi="http://sodipodi.sourceforge.net/DTD/sodipodi-0.dtd"
   xmlns:inkscape="http://www.inkscape.org/namespaces/inkscape"
   viewBox="0 0 512 512"
   style="height: 512px; width: 512px;"
   id="svg2"
   version="1.1"
   inkscape:version="0.91 r13725"
   sodipodi:docname="rifle-butt.svg">
  <metadata
     id="metadata27">
    <rdf:RDF>
      <cc:Work
         rdf:about="">
        <dc:format>image/svg+xml</dc:format>
        <dc:type
           rdf:resource="http://purl.org/dc/dcmitype/StillImage" />
        <dc:title></dc:title>
      </cc:Work>
    </rdf:RDF>
  </metadata>
  <sodipodi:namedview
     pagecolor="#ffffff"
     bordercolor="#666666"
     borderopacity="1"
     objecttolerance="10"
     gridtolerance="10"
     guidetolerance="10"
     inkscape:pageopacity="0"
     inkscape:pageshadow="2"
     inkscape:window-width="1280"
     inkscape:window-height="971"
     id="namedview25"
     showgrid="false"
     inkscape:zoom="0.65186406"
     inkscape:cx="316.3003"
     inkscape:cy="319.04528"
     inkscape:window-x="-8"
     inkscape:window-y="-8"
     inkscape:window-maximized="1"
     inkscape:current-layer="svg2" />
  <defs
     id="defs4">
    <clipPath
       id="icon-bg">
      <path
         d="M0 0h512v512H0z"
         fill="#412017"
         fill-opacity="0.69"
         id="path7" />
    </clipPath>
  </defs>
  <path
     d="M0 0h512v512H0z"
     fill="#412017"
     fill-opacity="0.69"
     id="path9" />
  <g
     class=""
     transform="matrix(1.6488357,0,0,1.6563183,59.045027,-357.72934)"
     id="g11">
    <g
       clip-path="url(#icon-bg)"
       id="g13">
      <path
         d="m 262.43721,217.47189 c 0,0 -5.03399,3.8575 -6.37227,4.8309 L 218.458,250.14 c -7.10138,5.25655 -17.15,3.623 -22.35,-3.52 l -4.95,-6.8 -29.79,21.48 c -1.67,1.22 -2.011,3.74 -0.811,6 l 2.09,3.951 c 1.021,1.662 0.959,3.771 -0.158,5.37 l -48,58.71 c -0.084,0.1 -0.178,0.191 -0.282,0.27 l -90.699,70.42 c -1.84,1.43 -1.91,4.46 -0.15,6.76 l 40.82,54.179 c 1.016,1.444 2.646,2.335 4.41,2.41 l 0.18,0 c 1.152,-0.026 2.216,-0.621 2.84,-1.59 l 84.43,-111.3 c 1.266,-1.067 1.787,-2.779 1.33,-4.37 0,0 -3.04,-16.07 -2.32,-17.07 0,0 28.7,-38.39 28.95,-38.58 l 89.39969,-68.70874 0.15973,-10.41551 z"
         class="selected"
         id="path17"
         inkscape:connector-curvature="0"
         style="fill:#ffffff;fill-opacity:1;stroke:#412017;stroke-width:3;stroke-opacity:1"
         sodipodi:nodetypes="ccsccccccccccccccccccccc" />
      <path
         d="M 209.07027,217.75916 198.929,223.32 l 10.118,13.91 29.90286,-19.66756 z"
         class=""
         id="path19"
         inkscape:connector-curvature="0"
         style="fill:#ffffff;fill-opacity:1;stroke:#412017;stroke-width:3;stroke-opacity:1"
         sodipodi:nodetypes="ccccc" />
      <path
         d="m 267.62465,248.64309 -38.629,29.6 7.49,15.37 c 0.883,1.796 2.729,2.916 4.73,2.87 l 0.25,0 c 1.816,-0.082 3.496,-0.983 4.57,-2.45 l 22.77,-30.59 c 0.963,-1.291 1.327,-2.933 1,-4.51 l -2.18,-10.29 z"
         class=""
         id="path21"
         inkscape:connector-curvature="0"
         style="fill:#ffffff;fill-opacity:1;stroke:#412017;stroke-width:3;stroke-opacity:1" />
      <path
         d="m 213.767,293.78 -5.929,4.59 c 5.071,8.457 -0.914,19.233 -10.774,19.396 -1.972,0.033 -3.924,-0.39 -5.706,-1.236 l -2.26,3 -2.26,3 c 12.443,7.064 28.091,-0.64 30.08,-14.81 0.693,-4.876 -0.428,-9.836 -3.15,-13.94 z"
         class=""
         id="path23"
         inkscape:connector-curvature="0"
         style="fill:#ffffff;fill-opacity:1;stroke:#412017;stroke-width:3;stroke-opacity:1" />
    </g>
  </g>
  <path
     style="fill:#ffffff;fill-opacity:1;fill-rule:evenodd;stroke:#412017;stroke-width:4.5;stroke-linecap:butt;stroke-linejoin:round;stroke-miterlimit:4;stroke-dasharray:none;stroke-opacity:1"
     d="M 171.11865,237.55932 203.9322,35.79661 125.83051,215.86441 90.033898,181.15254 91.118644,261.42373 29.288136,253.83051 86.779661,289.62712 8.6779661,322.16949 76.349588,315.12332 21.694915,369.89831 77.114681,349.76938 6.2452715,505.10801 122.25856,414.39546 l -20.12892,56.96512 35.75338,-43.40111 15.788,66.69588 11.95479,-47.3998 111.21176,57.986 -69.60791,-86.1781 35.83984,-14.22201 -0.62882,-35.21432 203.38983,-77.83051 -174.43069,13.06348 c 0,0 -51.15682,67.07746 -84.94877,114.22412 -4.27688,5.96712 -16.17974,18.58951 -29.97671,-0.662 -13.79697,-19.25152 -41.10827,-57.31357 -66.479789,-88.73168 -4.661142,-5.77199 -1.2587,-17.49496 4.656697,-21.97271 18.670292,-14.13276 53.498082,-41.4775 53.498082,-41.4775 l 20.48518,-15.77067 z"
     id="path4175"
     inkscape:connector-curvature="0"
     sodipodi:nodetypes="cccccccccccccccccccccccszssccc" />
</svg>
